<?xml version="1.0" encoding="UTF-8"?>
<svg version="1.1" xmlns="http://www.w3.org/2000/svg" width="225" height="225">
<path d="M0 0 C74.25 0 148.5 0 225 0 C225 74.25 225 148.5 225 225 C150.75 225 76.5 225 0 225 C0 150.75 0 76.5 0 0 Z " fill="#FEFEFE" transform="translate(0,0)"/>
<path d="M0 0 C0.53625 0.2475 1.0725 0.495 1.625 0.75 C0.33065652 3.63595246 -0.97547157 5.5108178 -3.3125 7.625 C-11.23637371 15.33291908 -18.74663901 24.67179404 -23.375 34.75 C-23.74238281 35.49507812 -24.10976562 36.24015625 -24.48828125 37.0078125 C-25.63384967 40.55049546 -25.59147682 43.88583535 -25.5 47.5625 C-25.49097656 48.25537109 -25.48195312 48.94824219 -25.47265625 49.66210938 C-25.44926157 51.35822395 -25.41339641 53.05415871 -25.375 54.75 C-27.24800025 55.40161012 -29.1235055 56.04602195 -31 56.6875 C-32.56621094 57.22697266 -32.56621094 57.22697266 -34.1640625 57.77734375 C-37.2437471 58.71024091 -40.19618961 59.27922509 -43.375 59.75 C-44.12523437 59.93304688 -44.87546875 60.11609375 -45.6484375 60.3046875 C-48.29368371 60.70786629 -49.84571189 60.68389099 -52.375 59.75 C-55.21961133 56.33424839 -57.21703876 52.51631585 -59.31835938 48.62304688 C-61.04075041 45.56986203 -63.02314916 42.72310793 -65.0625 39.875 C-65.67242798 39.02047241 -65.67242798 39.02047241 -66.29467773 38.14868164 C-71.14605934 31.49781791 -76.61537474 25.36366517 -82.11328125 19.24536133 C-84.76095137 16.1074009 -85.375 14.9761621 -85.375 10.75 C-81.69807629 11.02392555 -79.84626369 11.31274503 -77.1015625 13.859375 C-76.40804687 14.73078125 -75.71453125 15.6021875 -75 16.5 C-70.65435676 21.63977094 -66.33270549 24.77114726 -60.375 27.75 C-42.33089843 29.14151731 -30.27532673 22.59618718 -16.84106445 11.09960938 C-15.64513119 10.06052242 -14.45452038 9.0152661 -13.27026367 7.96289062 C-3.82827247 -0.40297605 -3.82827247 -0.40297605 0 0 Z " fill="#75B645" transform="translate(152.375,67.25)"/>
<path d="M0 0 C3.83384234 0.30069352 6.59957923 0.78310542 10 2.625 C12 5 12 5 12.125 8.5 C10.81165242 12.58597025 9.55597053 13.71401895 6 16 C5.01 16.66 4.02 17.32 3 18 C3.66 18.99 4.32 19.98 5 21 C4.8125 23.0625 4.8125 23.0625 4 25 C-2.68200524 29.45467016 -14.12454341 30.3125761 -22 29 C-24 26 -24 26 -24 23 C-24.79664062 23.04640625 -25.59328125 23.0928125 -26.4140625 23.140625 C-36.16145329 23.47265291 -36.16145329 23.47265291 -39.75 21.375 C-42 19 -42 19 -42.6875 16.0625 C-41.78925062 12.06120731 -40.14430541 10.55931836 -37 8 C-36.01 7.67 -35.02 7.34 -34 7 C-33.67 8.32 -33.34 9.64 -33 11 C-33.66 11.433125 -34.32 11.86625 -35 12.3125 C-35.66 12.869375 -36.32 13.42625 -37 14 C-37 14.99 -37 15.98 -37 17 C-28.22542607 21.38728696 -12.80040306 18.16045002 -3.94140625 15.2109375 C-0.0216112 13.59721045 3.85096266 11.89493634 7 9 C7.33 8.01 7.66 7.02 8 6 C5.36 5.34 2.72 4.68 0 4 C0 2.68 0 1.36 0 0 Z " fill="#EBA522" transform="translate(127,109)"/>
<path d="M0 0 C3.0220794 1.74450506 5.41651082 3.83302164 7 7 C7.37766377 12.00404498 7.11200434 14.99885156 4 19 C1.40063719 21.79190821 -0.00859908 22.00110956 -3.875 22.5 C-7.2162335 22.34386759 -8.3483821 21.80363918 -11.4375 20.0625 C-14.32888225 16.60694561 -15.02163864 14.62972721 -15.2421875 10.21875 C-14.85639279 6.68437266 -13.30350467 4.62343588 -11 2 C-7.3112362 -0.45917586 -4.2815571 -0.81591937 0 0 Z " fill="#94C33F" transform="translate(107,70)"/>
<path d="M0 0 C0.495 0.99 0.495 0.99 1 2 C1.72147217 1.83846436 2.44294434 1.67692871 3.1862793 1.51049805 C7.71562392 0.68873149 12.22051433 0.8155471 16.8125 0.8125 C18.25206055 0.79413086 18.25206055 0.79413086 19.72070312 0.77539062 C25.50599537 0.76354361 30.45400571 1.33948337 36 3 C36 4.32 36 5.64 36 7 C35.30777344 6.9278125 34.61554688 6.855625 33.90234375 6.78125 C21.46146761 5.60108784 9.93229006 5.02256998 -2 9 C-2 10.65 -2 12.3 -2 14 C-1.05125 14.144375 -0.1025 14.28875 0.875 14.4375 C4 15 4 15 6 16 C5.62193054 18.31751669 5.33558665 19.66731468 3.64453125 21.34375 C-8.2472285 28.84899709 -23.14291902 31.05995332 -37 29 C-37.99 28.34 -38.98 27.68 -40 27 C-39.6875 25.125 -39.6875 25.125 -39 23 C-38.01 22.34 -37.02 21.68 -36 21 C-36 19.68 -36 18.36 -36 17 C-36.66 16.67 -37.32 16.34 -38 16 C-37.01 16 -36.02 16 -35 16 C-33.02 19.63 -31.04 23.26 -29 27 C-22.4576343 27.20956527 -16.78261159 26.54580496 -10.4375 25 C-9.61958984 24.80921875 -8.80167969 24.6184375 -7.95898438 24.421875 C-5.97056956 23.95674873 -3.98496244 23.47964573 -2 23 C-2.495 22.01 -2.495 22.01 -3 21 C-3.56461743 13.33423253 -3.28608699 6.98293485 0 0 Z " fill="#F7F6E7" transform="translate(129,99)"/>
<path d="M0 0 C1.65439171 2.97790508 2.38550003 5.66177043 3 9 C1.12699975 9.65161012 -0.7485055 10.29602195 -2.625 10.9375 C-3.66914062 11.29714844 -4.71328125 11.65679687 -5.7890625 12.02734375 C-10.50649551 13.45634718 -14.95174857 14.13709472 -19.875 14.0625 C-20.65617187 14.05347656 -21.43734375 14.04445313 -22.2421875 14.03515625 C-22.82226562 14.02355469 -23.40234375 14.01195313 -24 14 C-24.66 12.35 -25.32 10.7 -26 9 C-25.05125 8.7525 -24.1025 8.505 -23.125 8.25 C-20.00481285 7.36752283 -17.05753148 6.24060036 -14.0625 5 C-9.75289174 3.22739354 -5.52841497 2.07035263 -1 1 C-0.67 0.67 -0.34 0.34 0 0 Z " fill="#57AC48" transform="translate(124,113)"/>
<path d="M0 0 C2 3 2 3 1.8125 5.0625 C1 7 1 7 -2 9 C-9.1950848 10.7987712 -17.61766219 12.23038963 -25 11 C-27 8 -27 8 -27 5 C-25.42412109 4.83564453 -25.42412109 4.83564453 -23.81640625 4.66796875 C-16.15002957 3.81898919 -7.28990746 0 0 0 Z " fill="#3D9C46" transform="translate(130,127)"/>
<path d="M0 0 C1.875 1 1.875 1 3 3 C3.53653931 6.57692871 3.65701652 9.76326302 1.9375 13 C-1.16867275 14.60318593 -3.57990979 14.42751128 -7 14 C-9.62541413 11.79803976 -9.9445448 10.38026421 -10.4375 7 C-10 4 -10 4 -8.375 1.625 C-5.32214079 -0.46379841 -3.63031776 -0.54068562 0 0 Z " fill="#EDA92C" transform="translate(148,144)"/>
<path d="M0 0 C1.41055664 -0.00386719 1.41055664 -0.00386719 2.84960938 -0.0078125 C4.30657227 0.00378906 4.30657227 0.00378906 5.79296875 0.015625 C7.2325293 0.00402344 7.2325293 0.00402344 8.70117188 -0.0078125 C14.47290619 0.0079465 19.44704747 0.61542126 24.98046875 2.265625 C24.98046875 3.585625 24.98046875 4.905625 24.98046875 6.265625 C23.94212891 6.15734375 23.94212891 6.15734375 22.8828125 6.046875 C11.55929007 4.97270686 0.26465754 4.6818792 -11.01953125 6.265625 C-10.83203125 4.390625 -10.83203125 4.390625 -10.01953125 2.265625 C-6.60642335 0.56260968 -3.78974626 0.01012238 0 0 Z " fill="#EFAB31" transform="translate(140.01953125,99.734375)"/>
<path d="M0 0 C1.32 0 2.64 0 4 0 C4.66 2.31 5.32 4.62 6 7 C6.66 4.69 7.32 2.38 8 0 C9.32 0 10.64 0 12 0 C12.33 2.64 12.66 5.28 13 8 C13.66 8 14.32 8 15 8 C14.979375 7.05125 14.95875 6.1025 14.9375 5.125 C15 2 15 2 16 0 C16.99 0 17.98 0 19 0 C18.40380045 4.86896303 17.43023178 9.32790951 16 14 C14.68 14 13.36 14 12 14 C11.34 11.69 10.68 9.38 10 7 C9.01 9.31 8.02 11.62 7 14 C5.109375 13.8046875 5.109375 13.8046875 3 13 C1.953125 10.8203125 1.953125 10.8203125 1.25 8.125 C1.00765625 7.24070313 0.7653125 6.35640625 0.515625 5.4453125 C0 3 0 3 0 0 Z " fill="#8CBF50" transform="translate(52,144)"/>
<path d="M0 0 C3.63136915 0.64182338 6.08161615 2.20924698 9.125 4.25 C12.82908218 6.68297623 16.47580628 8.77221873 20.5 10.625 C24.31030562 12.44547935 26.3713586 13.92839649 28 18 C17.10433005 16.71037594 7.12631837 10.07290673 -1 3 C-0.67 2.01 -0.34 1.02 0 0 Z " fill="#EEA825" transform="translate(61,93)"/>
<path d="M0 0 C3.7692667 0.27234586 5.60347068 0.65210163 8.484375 3.1796875 C9.23203125 4.06914063 9.9796875 4.95859375 10.75 5.875 C11.88695313 7.20144531 11.88695313 7.20144531 13.046875 8.5546875 C17 13.504 17 13.504 17 18 C12.74600835 18 11.72349267 17.4374295 8.66015625 14.6953125 C0 5.85176471 0 5.85176471 0 0 Z " fill="#97C444" transform="translate(67,78)"/>
<path d="M0 0 C0.66 0 1.32 0 2 0 C2.33 1.32 2.66 2.64 3 4 C2.34 4.433125 1.68 4.86625 1 5.3125 C0.34 5.869375 -0.32 6.42625 -1 7 C-1 7.99 -1 8.98 -1 10 C1.83269666 11.41634833 4.47466438 11.3463005 7.625 11.5625 C8.81351563 11.64628906 10.00203125 11.73007813 11.2265625 11.81640625 C12.14179687 11.87699219 13.05703125 11.93757813 14 12 C9.67011683 15.68139836 5.59534497 16.28152679 0 16 C-3.625 14.4375 -3.625 14.4375 -6 12 C-6.6875 9.0625 -6.6875 9.0625 -6 6 C-3.5625 3.1875 -3.5625 3.1875 -1 1 C-0.67 0.67 -0.34 0.34 0 0 Z " fill="#EFA51F" transform="translate(91,116)"/>
<path d="M0 0 C0 0.99 0 1.98 0 3 C-2.31 3.66 -4.62 4.32 -7 5 C-7 6.65 -7 8.3 -7 10 C-5.68 10.33 -4.36 10.66 -3 11 C-2.67 10.34 -2.34 9.68 -2 9 C-2.99 9 -3.98 9 -5 9 C-5 8.01 -5 7.02 -5 6 C-3.02 6 -1.04 6 1 6 C1 8.64 1 11.28 1 14 C-0.43655854 14.08131463 -1.8744483 14.13933559 -3.3125 14.1875 C-4.51326172 14.23970703 -4.51326172 14.23970703 -5.73828125 14.29296875 C-8 14 -8 14 -9.765625 12.703125 C-11.84645235 9.83211005 -11.41903757 7.41216306 -11 4 C-8.07275826 -0.56649711 -5.15004683 -0.39615745 0 0 Z " fill="#6BB256" transform="translate(100,144)"/>
<path d="M0 0 C-0.27746492 3.32957907 -0.81096104 4.78804723 -3.0625 7.3125 C-7.06484866 9.61172157 -9.42527608 9.37497737 -14 9 C-14.66 8.67 -15.32 8.34 -16 8 C-15.375 5.5625 -15.375 5.5625 -14 3 C-11.125 2.3125 -11.125 2.3125 -8 2 C-7.29875 1.649375 -6.5975 1.29875 -5.875 0.9375 C-4 0 -4 0 0 0 Z " fill="#88BD40" transform="translate(113,83)"/>
<path d="M0 0 C0.99 0 1.98 0 3 0 C3 4.62 3 9.24 3 14 C2.01 14 1.02 14 0 14 C0 12.02 0 10.04 0 8 C-1.98 8 -3.96 8 -6 8 C-6 9.98 -6 11.96 -6 14 C-6.66 14 -7.32 14 -8 14 C-8 9.71 -8 5.42 -8 1 C-7.34 1 -6.68 1 -6 1 C-6 2.65 -6 4.3 -6 6 C-4.02 6 -2.04 6 0 6 C0 4.02 0 2.04 0 0 Z " fill="#66AF3E" transform="translate(112,144)"/>
<path d="M0 0 C2.64 0 5.28 0 8 0 C8 0.99 8 1.98 8 3 C6.35 3 4.7 3 3 3 C3 3.99 3 4.98 3 6 C4.32 6 5.64 6 7 6 C7 6.66 7 7.32 7 8 C5.68 8 4.36 8 3 8 C3 8.99 3 9.98 3 11 C4.65 11 6.3 11 8 11 C8 11.99 8 12.98 8 14 C5.36 14 2.72 14 0 14 C0 9.38 0 4.76 0 0 Z " fill="#73B349" transform="translate(73,144)"/>
<path d="M0 0 C1.670625 0.061875 1.670625 0.061875 3.375 0.125 C3.375 1.115 3.375 2.105 3.375 3.125 C1.395 3.125 -0.585 3.125 -2.625 3.125 C-1.24808038 5.87883923 0.74220042 6.63983101 3.375 8.125 C2.5 13 2.5 13 1.375 14.125 C-0.95797433 14.16592937 -3.29205225 14.16741723 -5.625 14.125 C-5.625 13.135 -5.625 12.145 -5.625 11.125 C-3.975 11.125 -2.325 11.125 -0.625 11.125 C-0.295 10.465 0.035 9.805 0.375 9.125 C-0.429375 8.898125 -1.23375 8.67125 -2.0625 8.4375 C-4.625 7.125 -4.625 7.125 -5.5625 4.625 C-5.583125 3.8 -5.60375 2.975 -5.625 2.125 C-3.625 0.125 -3.625 0.125 0 0 Z " fill="#EEA620" transform="translate(158.625,143.875)"/>
<path d="M0 0 C0.94875 0.04125 1.8975 0.0825 2.875 0.125 C3.205 1.115 3.535 2.105 3.875 3.125 C1.895 3.125 -0.085 3.125 -2.125 3.125 C-2.125 3.785 -2.125 4.445 -2.125 5.125 C-1.320625 5.351875 -0.51625 5.57875 0.3125 5.8125 C2.875 7.125 2.875 7.125 3.8125 9.625 C3.833125 10.45 3.85375 11.275 3.875 12.125 C1.875 14.125 1.875 14.125 -1.75 14.25 C-2.86375 14.20875 -3.9775 14.1675 -5.125 14.125 C-5.125 13.135 -5.125 12.145 -5.125 11.125 C-3.475 11.125 -1.825 11.125 -0.125 11.125 C0.205 10.465 0.535 9.805 0.875 9.125 C0.070625 8.898125 -0.73375 8.67125 -1.5625 8.4375 C-4.125 7.125 -4.125 7.125 -5.0625 4.625 C-5.083125 3.8 -5.10375 2.975 -5.125 2.125 C-3.125 0.125 -3.125 0.125 0 0 Z " fill="#EDA41A" transform="translate(169.125,143.875)"/>
<path d="M0 0 C1.32 0 2.64 0 4 0 C4 3.63 4 7.26 4 11 C5.65 11.33 7.3 11.66 9 12 C9 12.66 9 13.32 9 14 C6.03 14 3.06 14 0 14 C0 9.38 0 4.76 0 0 Z " fill="#EFB74E" transform="translate(129,144)"/>
<path d="M0 0 C1.58323688 -0.027193 3.16661062 -0.04648306 4.75 -0.0625 C6.07257813 -0.07990234 6.07257813 -0.07990234 7.421875 -0.09765625 C9.7818838 -0.00826198 11.74498524 0.33087179 14 1 C14 2.32 14 3.64 14 5 C13.28457031 4.93941406 12.56914062 4.87882812 11.83203125 4.81640625 C4.22385955 4.17665054 -3.3868332 3.57712716 -11 3 C-11 2.67 -11 2.34 -11 2 C-7.37 2 -3.74 2 0 2 C0 1.34 0 0.68 0 0 Z " fill="#EFA92B" transform="translate(151,101)"/>
<path d="M0 0 C3.63 0 7.26 0 11 0 C11 0.99 11 1.98 11 3 C9.68 3 8.36 3 7 3 C7 6.63 7 10.26 7 14 C6.01 14 5.02 14 4 14 C4 10.37 4 6.74 4 3 C2.68 3 1.36 3 0 3 C0 2.01 0 1.02 0 0 Z " fill="#95C256" transform="translate(117,144)"/>
<path d="M0 0 C2.64 0 5.28 0 8 0 C8.2475 0.61875 8.495 1.2375 8.75 1.875 C10.20628639 4.35068687 11.37812506 4.95125002 14 6 C13.67 6.99 13.34 7.98 13 9 C11.35 8.67 9.7 8.34 8 8 C7.67 8.66 7.34 9.32 7 10 C6.5875 9.05125 6.175 8.1025 5.75 7.125 C3.9959869 3.99283376 3.29148243 3.13499394 0 2 C0 1.34 0 0.68 0 0 Z " fill="#FCF7E6" transform="translate(156,147)"/>
<path d="M0 0 C1.32 0 2.64 0 4 0 C4 4.62 4 9.24 4 14 C2.68 14 1.36 14 0 14 C0 9.38 0 4.76 0 0 Z " fill="#96C66E" transform="translate(83,144)"/>
<path d="M0 0 C0.66 0.33 1.32 0.66 2 1 C2.05395478 2.62463842 2.09277195 4.24978541 2.125 5.875 C2.14820312 6.77992188 2.17140625 7.68484375 2.1953125 8.6171875 C2 11 2 11 0 13 C0 12.01 0 11.02 0 10 C-1.65 10 -3.3 10 -5 10 C-5 9.01 -5 8.02 -5 7 C-3.68 7 -2.36 7 -1 7 C-1 6.34 -1 5.68 -1 5 C-2.32 5 -3.64 5 -5 5 C-5 4.01 -5 3.02 -5 2 C-3.35 2 -1.7 2 0 2 C0 1.34 0 0.68 0 0 Z " fill="#F4F9EE" transform="translate(81,145)"/>
<path d="M0 0 C2.625 0.375 2.625 0.375 5 1 C5.04254356 2.99954746 5.04080783 5.00041636 5 7 C4 8 4 8 1.5 8.125 C-1 8 -1 8 -2 7 C-2.1875 4.5625 -2.1875 4.5625 -2 2 C-1.34 1.34 -0.68 0.68 0 0 Z " fill="#FCF8ED" transform="translate(143,147)"/>
<path d="M0 0 C6.93 0.495 6.93 0.495 14 1 C10.17581599 3.868138 9.29103732 4.42362507 4.875 4.8125 C3.57175781 4.94591797 3.57175781 4.94591797 2.2421875 5.08203125 C0 5 0 5 -2 3 C-1.34 3 -0.68 3 0 3 C0 2.01 0 1.02 0 0 Z " fill="#EEAB31" transform="translate(91,127)"/>
<path d="M0 0 C-0.66 1.32 -1.32 2.64 -2 4 C-6.62 4 -11.24 4 -16 4 C-16 3.67 -16 3.34 -16 3 C-14.35 2.67 -12.7 2.34 -11 2 C-11 1.67 -11 1.34 -11 1 C-7.26562152 0.12132271 -3.83225427 -0.08912219 0 0 Z " fill="#F0A214" transform="translate(111,128)"/>
<path d="M0 0 C1.32 0.66 2.64 1.32 4 2 C3.125 6.875 3.125 6.875 2 8 C-0.33297433 8.04092937 -2.66705225 8.04241723 -5 8 C-5 7.01 -5 6.02 -5 5 C-3.35 5 -1.7 5 0 5 C0.33 4.34 0.66 3.68 1 3 C0.34 2.67 -0.32 2.34 -1 2 C-0.67 1.34 -0.34 0.68 0 0 Z " fill="#EDA622" transform="translate(169,150)"/>
<path d="M0 0 C1.175625 1.2065625 1.175625 1.2065625 2.375 2.4375 C4.71982856 4.98690417 4.71982856 4.98690417 7 6 C6.67 6.99 6.34 7.98 6 9 C4.35 8.67 2.7 8.34 1 8 C0.67 8.66 0.34 9.32 0 10 C-1.125 2.25 -1.125 2.25 0 0 Z " fill="#FCF6E4" transform="translate(152,147)"/>
<path d="M0 0 C1.8871875 0.061875 1.8871875 0.061875 3.8125 0.125 C3.4825 0.785 3.1525 1.445 2.8125 2.125 C1.2346875 2.2178125 1.2346875 2.2178125 -0.375 2.3125 C-5.49942095 3.40458971 -7.24157869 5.99207743 -10.1875 10.125 C-10.5175 9.465 -10.8475 8.805 -11.1875 8.125 C-5.94238827 -0.1948324 -5.94238827 -0.1948324 0 0 Z " fill="#A6CB53" transform="translate(103.1875,69.875)"/>
<path d="M0 0 C1.32 0 2.64 0 4 0 C4.33 2.97 4.66 5.94 5 9 C4.01 9.33 3.02 9.66 2 10 C1.34 6.7 0.68 3.4 0 0 Z " fill="#9CC658" transform="translate(52,144)"/>
<path d="M0 0 C2.64 0 5.28 0 8 0 C7.01 0.495 7.01 0.495 6 1 C6 1.66 6 2.32 6 3 C0.39 3 -5.22 3 -11 3 C-11 2.67 -11 2.34 -11 2 C-7.37 2 -3.74 2 0 2 C0 1.34 0 0.68 0 0 Z " fill="#F0A109" transform="translate(151,101)"/>
<path d="M0 0 C1.670625 0.061875 1.670625 0.061875 3.375 0.125 C3.375 1.115 3.375 2.105 3.375 3.125 C1.065 3.125 -1.245 3.125 -3.625 3.125 C-3.955 4.115 -4.285 5.105 -4.625 6.125 C-5.25 4.25 -5.25 4.25 -5.625 2.125 C-3.625 0.125 -3.625 0.125 0 0 Z " fill="#EDB03F" transform="translate(158.625,143.875)"/>
<path d="M0 0 C-0.66 1.32 -1.32 2.64 -2 4 C-3.32 4 -4.64 4 -6 4 C-6 2.68 -6 1.36 -6 0 C-3.50907189 -1.24546405 -2.58919267 -0.7767578 0 0 Z " fill="#8FBF47" transform="translate(154,68)"/>
<path d="M0 0 C0.99 0 1.98 0 3 0 C3 2.97 3 5.94 3 9 C2.01 9 1.02 9 0 9 C0 6.03 0 3.06 0 0 Z " fill="#51A646" transform="translate(121,149)"/>
<path d="M0 0 C0 0.99 0 1.98 0 3 C-6.625 4.25 -6.625 4.25 -10 2 C-6.3558226 -0.4294516 -4.28758728 -0.16179575 0 0 Z " fill="#9AC456" transform="translate(100,144)"/>
<path d="M0 0 C0.33 1.32 0.66 2.64 1 4 C-1.475 5.485 -1.475 5.485 -4 7 C-4 6.01 -4 5.02 -4 4 C-4.66 3.67 -5.32 3.34 -6 3 C-2.25 0 -2.25 0 0 0 Z " fill="#EEAA2D" transform="translate(93,116)"/>
<path d="M0 0 C1.65 0 3.3 0 5 0 C4.67 1.65 4.34 3.3 4 5 C2.68 4.67 1.36 4.34 0 4 C0 2.68 0 1.36 0 0 Z " fill="#6FB24A" transform="translate(55,153)"/>
<path d="M0 0 C0.99 0 1.98 0 3 0 C2.40138258 2.35171131 1.73075648 4.6859378 1 7 C0.01 7.495 0.01 7.495 -1 8 C-1.04241723 5.66705225 -1.04092937 3.33297433 -1 1 C-0.67 0.67 -0.34 0.34 0 0 Z " fill="#7AB746" transform="translate(90,147)"/>
<path d="M0 0 C2.125 0.9375 2.125 0.9375 4 2 C0.375 5 0.375 5 -3 5 C-2.625 3.0625 -2.625 3.0625 -2 1 C-1.34 0.67 -0.68 0.34 0 0 Z " fill="#EFA521" transform="translate(132,101)"/>
<path d="M0 0 C2.97 0.495 2.97 0.495 6 1 C5.67 1.99 5.34 2.98 5 4 C4.01 4 3.02 4 2 4 C1.67 4.66 1.34 5.32 1 6 C0.67 4.02 0.34 2.04 0 0 Z " fill="#A4CA4A" transform="translate(67,78)"/>
<path d="M0 0 C0.66 0 1.32 0 2 0 C2 1.98 2 3.96 2 6 C0.02 6.99 0.02 6.99 -2 8 C-1.47731534 5.23723823 -0.89130413 2.6739124 0 0 Z " fill="#EFA51C" transform="translate(149,149)"/>
<path d="M0 0 C2.97 0.495 2.97 0.495 6 1 C6.33 1.99 6.66 2.98 7 4 C4.69 4 2.38 4 0 4 C0 2.68 0 1.36 0 0 Z " fill="#EEAC33" transform="translate(141,154)"/>
<path d="M0 0 C2.64 0 5.28 0 8 0 C8 0.99 8 1.98 8 3 C5.6568787 2.74438677 3.32156597 2.40729228 1 2 C0.67 1.34 0.34 0.68 0 0 Z " fill="#A7CA5C" transform="translate(73,144)"/>
<path d="M0 0 C3.63 0 7.26 0 11 0 C9.68 0.33 8.36 0.66 7 1 C6.67 1.99 6.34 2.98 6 4 C5.34 3.67 4.68 3.34 4 3 C4 2.34 4 1.68 4 1 C2.68 0.67 1.36 0.34 0 0 Z " fill="#81B74D" transform="translate(117,146)"/>
<path d="M0 0 C0.33 0 0.66 0 1 0 C1 2.64 1 5.28 1 8 C-0.5625 6.75 -0.5625 6.75 -2 5 C-1.74853421 2.86254078 -1.54074221 1.54074221 0 0 Z " fill="#EEA318" transform="translate(140,149)"/>
<path d="M0 0 C1.98 0 3.96 0 6 0 C6.33 0.99 6.66 1.98 7 3 C4.625 3.1875 4.625 3.1875 2 3 C1.34 2.01 0.68 1.02 0 0 Z " fill="#ECB54A" transform="translate(166,144)"/>
</svg>
